<svg width="806" height="151" viewBox="0 0 806 151" fill="none" xmlns="http://www.w3.org/2000/svg">
<g clip-path="url(#clip0_101_2)">
<path d="M28.25 36.4H0V139.18H64.65V113.65H28.25V36.4Z" fill="black"/>
<path d="M116.52 34.68C91.15 34.68 63.85 51.35 63.85 87.93C63.85 124.51 91.15 141.29 116.52 141.29C141.89 141.29 169.2 124.59 169.2 87.93C169.2 51.27 141.89 34.68 116.52 34.68ZM140.52 87.93C140.52 105.85 128.12 114.01 116.59 114.01C105.06 114.01 92.66 105.85 92.66 87.93C92.66 70.01 105.07 62.07 116.59 62.07C128.11 62.07 140.52 70.16 140.52 87.93Z" fill="black"/>
<path d="M247.09 99.1C244.63 108.8 236.92 114.37 225.93 114.37C212.41 114.24 202.21 102.82 202.21 87.79C202.21 71.79 211.74 61.07 225.92 61.07C236.6 61.07 243.39 65.63 246.7 75.01L246.99 75.83H274.49L274.29 74.43C270.11 45.51 245.62 35.26 225.92 35.26C199.85 35.26 173.39 53.26 173.25 87.8C173.35 113.8 191.37 140.18 225.61 140.18H225.92C246.92 140.18 270.79 129.51 274.72 99.56L274.9 98.17H247.33L247.09 99.1Z" fill="black"/>
<path d="M458.45 36.4H429L388.66 107.11L388.5 107.39V120.12H432.21V139.18H458.45V120.12H467.05V96.74H458.45V36.4ZM420.51 96.74L434.44 72.74L433.21 82.93V96.74H420.51Z" fill="black"/>
<path d="M503.83 98.76H533.04V73.52H503.83V61.78H540.95V36.4H475.87V139.18H542.24V113.94H503.83V98.76Z" fill="black"/>
<path d="M594.02 92.02L570.98 36.4H544.29V41.5L587.71 140.32H600.21L643.1 41.99L643.2 36.4H616.5L594.02 92.02Z" fill="black"/>
<path d="M674.93 98.76H704.14V73.52H674.93V61.78H712.05V36.4H646.97V139.18H713.35V113.94H674.93V98.76Z" fill="black"/>
<path d="M786.18 102.75C798.41 93.75 803.64 77.04 798.9 61.53C794.12 45.86 780.82 36.47 763.31 36.4H718.09V139.18H746.19V109.65H757.6L774.8 139.18H805.39V133.88L786.18 102.75ZM772.79 73C772.79 78.68 769.5 84.43 763.31 84.43H746.19V61.78H751.04C755.13 61.78 759.26 61.72 763.3 61.78C769.89 61.85 772.82 67.46 772.79 73Z" fill="black"/>
<path d="M388.73 97.49C389.862 94.6607 390.684 91.7167 391.18 88.71C391.32 87.81 391.43 86.92 391.51 86.01C391.56 85.47 391.58 84.93 391.61 84.39C391.64 83.85 391.68 83.56 391.68 83.14C391.682 78.8183 391.007 74.5229 389.68 70.41C386.42 60.32 379.43 52.35 370.62 48.69L370.36 48.58C369.73 48.32 369.09 48.09 368.45 47.88L368.3 47.83C367.113 47.4604 365.904 47.1665 364.68 46.95C364.45 46.95 364.22 46.86 363.98 46.83C363.4 46.74 362.81 46.67 362.22 46.62C361.92 46.62 361.61 46.62 361.31 46.56C360.81 46.56 360.31 46.48 359.8 46.48C358.461 46.4854 357.125 46.5857 355.8 46.78L357.1 44.53L357.37 44.07H355.17H354.27H351.83C354.635 41.017 356.514 37.23 357.25 33.15C357.295 32.7669 357.407 32.3946 357.58 32.05C357.655 31.9341 357.739 31.8238 357.83 31.72C357.929 31.5715 358.039 31.4311 358.16 31.3C359.55 30.06 361.97 30.49 361.97 30.49H361.91H362C361.327 29.9089 360.501 29.534 359.62 29.41C356.62 29.28 355.19 30.15 354.2 31.34C353.61 32.04 353.2 32.86 352.61 33.64C352.433 33.8897 352.239 34.127 352.03 34.35C350.55 35.95 348.48 36.7 346.6 35.01C345.93 34.41 346.04 33.75 346.6 33.06C347.86 31.54 351.29 29.91 353.36 28.58C354.132 28.0805 354.81 27.4472 355.36 26.71C357.08 24.42 357.73 20.85 355.95 15.71C354.95 12.77 355.69 10.8 356.88 9.51C357.149 9.22661 357.443 8.96883 357.76 8.74L358.08 8.51C358.306 8.35759 358.539 8.21739 358.78 8.09C359.376 7.76468 360.011 7.51604 360.67 7.35H360.52H360.69C359.642 7.38098 358.61 7.62068 357.655 8.05509C356.701 8.4895 355.842 9.1099 355.13 9.88C353.715 11.3538 352.685 13.1535 352.13 15.12C351.76 16.7555 351.033 18.2889 350 19.61C349.535 20.1539 348.936 20.5678 348.263 20.8114C347.59 21.055 346.866 21.12 346.16 21C343.35 20.62 343.81 17 345.53 15.2C345.77 14.9501 346.047 14.7377 346.35 14.57C347.639 13.962 348.819 13.1442 349.84 12.15C350.427 11.4981 350.879 10.7367 351.171 9.90957C351.463 9.08241 351.588 8.20578 351.54 7.33C351.566 4.67818 350.696 2.0953 349.07 0C349.066 0.0365504 349.066 0.0734496 349.07 0.11L349.05 0C350.6 3.27 349.91 5.77 348.39 7.55C346.902 9.15411 344.958 10.2639 342.82 10.73C342.048 10.9056 341.322 11.2399 340.687 11.7116C340.051 12.1833 339.521 12.7822 339.13 13.47C337.85 15.7028 336.773 18.0455 335.91 20.47C335.618 21.1751 335.249 21.8459 334.81 22.47C331.76 26.77 325.91 28.37 325.07 26.02C324.982 25.803 324.95 25.567 324.978 25.3343C325.006 25.1016 325.093 24.8799 325.23 24.69C326.43 23 331.15 22.05 333.76 19.26C333.83 19.18 333.88 19.09 333.95 19.01C334.17 18.75 334.38 18.49 334.56 18.23C335.863 16.2905 336.348 13.9151 335.91 11.62C335.91 11.62 335.91 11.62 335.91 11.67C335.738 12.2673 335.468 12.8317 335.11 13.34C334.938 13.6103 334.751 13.8707 334.55 14.12C333.141 15.6214 331.466 16.8488 329.61 17.74C326.307 18.7079 323.212 20.2776 320.48 22.37L320.36 22.48C319.638 23.0891 318.969 23.7581 318.36 24.48C317.724 25.2535 317.155 26.0798 316.66 26.95C316.54 27.16 316.43 27.4 316.31 27.62C316.1 28.04 315.92 28.53 315.73 28.99C315.64 29.2 315.55 29.38 315.47 29.6C314.934 30.9172 314.516 32.2791 314.22 33.67C313.604 36.1185 313.962 38.7107 315.22 40.9C315.28 40.99 315.33 41.08 315.39 41.16C316.289 42.5316 317.468 43.6971 318.85 44.58C315.41 44.65 313.47 44.39 313.51 44.45L310 44.2L311.83 46.4H308.89C308.05 46.4 307.23 46.49 306.41 46.56H306.25C305.243 46.6625 304.242 46.816 303.25 47.02H302.97H302.9C301.837 47.2523 300.789 47.5461 299.76 47.9L299.35 48.04C298.41 48.3802 297.488 48.7707 296.59 49.21C296.46 49.27 296.33 49.31 296.2 49.38L295.9 49.54C295.35 49.82 294.81 50.12 294.27 50.44C294.1 50.54 293.91 50.63 293.74 50.74C293.57 50.85 293.35 51.01 293.15 51.14L293.03 51.23C292.119 51.8329 291.241 52.4838 290.4 53.18L290.18 53.36C289.31 54.09 288.47 54.87 287.67 55.69C287.641 55.7141 287.614 55.7409 287.59 55.77L287.44 55.93C286.303 57.1004 285.25 58.3502 284.29 59.67C284.1 59.94 283.93 60.23 283.74 60.5L283.49 60.9C283.22 61.3 282.94 61.7 282.69 62.12C282.54 62.37 282.39 62.62 282.25 62.87C278.797 68.9621 276.988 75.8474 277 82.85C277 82.95 277 83.04 277 83.13C277 83.22 277 83.47 277 83.65C277.114 87.9252 277.97 92.1481 279.53 96.13C279.58 96.26 279.63 96.38 279.69 96.51C280.993 99.8103 282.604 102.981 284.5 105.98L284.84 106.52C285.32 107.26 285.84 108.01 286.3 108.74L286.48 109C286.91 109.61 287.34 110.23 287.79 110.83L287.95 111.07C289.63 113.34 291.45 115.56 293.36 117.71L293.47 117.84C294.34 118.84 295.23 119.84 296.13 120.75L296.34 120.96C297.34 122.02 298.34 123.05 299.39 124.07L299.69 124.37C301.62 126.26 303.59 128.09 305.56 129.83L305.87 130.11C314.583 137.713 323.919 144.57 333.78 150.61L333.91 150.68L334.32 150.93C334.32 150.93 337.57 149.12 342.48 145.93L342.69 145.79C348.944 141.707 354.954 137.263 360.69 132.48L361.01 132.22C366.073 127.99 370.825 123.401 375.23 118.49L375.41 118.29C376.13 117.48 376.82 116.66 377.51 115.83L377.63 115.69C377.88 115.39 378.14 115.09 378.38 114.79C379.267 113.67 380.127 112.54 380.96 111.4C381.63 110.48 382.25 109.55 382.87 108.61L383.28 108.01C383.98 106.93 384.64 105.83 385.28 104.73L385.4 104.54C386.02 103.44 386.6 102.32 387.15 101.19C387.15 101.13 387.21 101.08 387.23 101.02C387.283 100.93 387.329 100.836 387.37 100.74C387.8 99.85 388.18 98.95 388.55 98.05C388.6 97.83 388.67 97.66 388.73 97.49ZM314.71 31.81C314.92 31.09 315.13 30.39 315.38 29.76C315.14 30.4 314.92 31.08 314.71 31.8V31.81ZM292.79 117C291.95 116 291.13 115.07 290.33 114.08C291.13 115.09 292 116.06 292.79 117ZM293.55 117.24C293.526 117.177 293.496 117.117 293.46 117.06C293.502 117.121 293.532 117.188 293.55 117.26V117.24ZM293.63 117.42C293.636 117.491 293.624 117.563 293.594 117.628C293.564 117.692 293.518 117.748 293.46 117.79C293.515 117.75 293.559 117.698 293.589 117.636C293.619 117.575 293.633 117.508 293.63 117.44V117.42Z" fill="black"/>
</g>
<defs>
<clipPath id="clip0_101_2">
<rect width="805.39" height="150.93" fill="white"/>
</clipPath>
</defs>
</svg>
