<svg width="465" height="283" viewBox="0 0 465 283" fill="none" xmlns="http://www.w3.org/2000/svg">
<path d="M464.239 181.5C463.959 180.75 463.579 180.47 462.779 180.47C462.459 180.47 462.079 180.63 461.819 180.52C459.999 179.7 458.229 180.18 456.459 180.68C454.069 181.36 451.709 181.35 449.319 180.58C445.749 179.43 445.769 179.46 443.629 176.56C442.859 175.51 442.649 174.45 442.999 173.25C443.609 171.16 444.439 169.19 445.839 167.48C447.409 165.55 449.069 163.69 451.129 162.26C452.709 161.16 453.619 159.61 454.239 157.85C454.859 156.13 454.469 154.64 453.129 153.39C452.319 152.63 451.419 151.94 450.709 151.1C449.329 149.47 447.619 148.31 445.799 147.26C444.009 146.23 442.139 145.61 440.029 145.69C436.499 145.81 433.189 146.71 430.049 148.28C425.889 150.36 422.409 153.29 419.319 156.73C416.069 160.36 413.449 164.41 411.209 168.73C410.919 169.3 410.549 169.86 410.079 170.29C408.259 171.98 406.409 173.64 404.529 175.26C402.799 176.75 401.059 178.25 399.229 179.61C397.539 180.87 395.609 181.71 393.519 182.1C390.449 182.67 389.989 181.69 389.939 179.48C389.889 177.2 390.019 174.91 390.149 172.63C390.319 169.7 390.749 166.78 390.709 163.83C390.669 160.77 388.869 158.77 386.849 156.87C386.289 156.34 385.619 156.32 384.849 156.59C383.539 157.05 382.319 157.64 381.189 158.45C378.679 160.25 376.449 162.37 374.369 164.63C371.269 167.99 368.269 171.45 365.219 174.87C364.799 175.34 364.369 175.8 363.729 176.49C363.729 175.69 363.979 175.29 364.149 174.9C365.419 172.1 366.719 169.32 367.989 166.52C368.419 165.57 368.819 164.6 369.199 163.63C369.729 162.29 369.559 161.08 368.469 160.04C368.139 159.73 367.869 159.36 367.599 158.99C366.229 157.08 364.239 156.55 362.329 157.89C361.619 158.39 360.899 158.75 360.019 158.87C359.449 158.94 358.899 159.22 358.359 159.45C353.819 161.34 349.449 163.57 345.289 166.17C341.849 168.31 338.469 170.57 335.059 172.76C334.529 173.1 333.959 173.4 333.469 173.68C332.319 172.08 331.279 170.59 330.189 169.14C328.709 167.18 326.679 166.07 324.329 165.45C321.899 164.81 319.429 164.64 316.939 164.68C315.099 164.71 313.469 165.31 312.249 166.75C311.109 168.09 310.069 169.52 308.879 170.82C306.809 173.09 304.669 175.3 302.539 177.51C301.439 178.64 300.389 179.79 299.649 181.2C299.349 181.77 298.919 182.28 298.499 182.78C296.839 184.8 295.129 186.78 293.499 188.83C290.239 192.93 286.969 197.01 283.089 200.56C281.189 202.29 279.099 203.74 276.869 204.99C276.139 205.4 275.319 205.69 274.519 205.96C273.989 206.14 273.369 206.47 272.869 205.94C272.379 205.42 272.659 204.8 272.859 204.27C273.469 202.69 274.039 201.07 274.809 199.57C276.509 196.25 278.339 193 280.079 189.71C281.359 187.28 282.529 184.8 283.379 182.18C284.359 179.15 284.139 176.25 282.719 173.43C282.159 172.32 281.529 171.25 280.959 170.15C280.519 169.29 279.989 168.45 279.989 167.47C280.109 167.31 280.179 167.2 280.269 167.11C282.369 164.91 283.119 160.66 281.879 157.96C281.799 157.78 281.709 157.61 281.609 157.44C280.679 155.92 279.159 155.89 278.189 157.41C277.739 158.12 277.419 158.91 277.029 159.66C276.249 159.5 276.129 158.75 275.709 158.27C274.039 156.34 271.759 156.31 270.159 158.28C269.639 158.93 269.219 159.71 268.929 160.49C268.549 161.53 268.369 162.63 268.079 163.7C267.269 166.77 266.059 169.58 263.679 171.86C260.679 174.72 258.119 177.96 256.479 181.81C255.729 183.56 255.109 185.35 253.519 186.56C253.419 186.64 253.359 186.76 253.289 186.87C252.369 188.3 251.479 189.75 250.519 191.15C247.259 195.89 244.059 200.67 240.679 205.33C237.489 209.73 233.889 213.81 229.759 217.37C227.919 218.95 225.949 220.35 223.689 221.3C222.659 221.74 221.589 222.05 220.469 222.08C219.619 222.1 219.209 221.8 219.189 220.95C219.169 219.71 219.169 218.46 219.359 217.24C219.769 214.58 220.579 212.02 221.469 209.49C223.539 203.56 226.069 197.81 228.779 192.15C235.059 179.05 242.009 166.3 249.429 153.82C252.129 149.27 255.029 144.83 257.799 140.31C258.649 138.93 259.809 138.14 261.389 137.86C264.349 137.33 267.279 136.66 270.249 136.19C276.969 135.14 283.679 134.08 290.419 133.23C295.279 132.62 300.169 132.27 305.059 131.92C307.399 131.75 309.769 131.8 312.119 131.81C316.379 131.83 320.609 132.15 324.799 132.93C325.699 133.1 326.609 133.25 327.519 133.3C328.649 133.37 329.389 132.66 329.419 131.53C329.429 131.08 329.319 130.62 329.179 130.19C328.959 129.5 326.709 126.79 326.099 126.45C325.759 126.26 325.399 126.09 325.019 125.99C324.259 125.79 323.499 125.59 322.719 125.49C318.939 125.02 315.149 125 311.359 125.16C307.439 125.32 303.529 125.59 299.619 125.85C297.399 126 295.189 126.21 292.979 126.43C289.989 126.74 286.999 127.04 284.019 127.43C278.709 128.13 273.409 128.92 268.099 129.62C266.899 129.78 265.699 130.08 264.219 129.99C264.979 128.69 265.739 127.65 266.479 126.59C268.659 123.48 270.869 120.4 273.019 117.27C273.679 116.31 274.209 115.24 274.699 114.18C275.069 113.37 275.019 112.5 274.439 111.76C273.719 110.83 272.979 109.91 272.189 109.04C270.879 107.59 269.259 107.39 267.539 108.11C266.709 108.46 265.909 108.95 265.189 109.5C262.949 111.23 261.029 113.29 259.249 115.47C255.479 120.08 252.099 124.98 248.859 129.97C246.629 133.39 247.859 132.77 243.769 133.47C237.519 134.54 231.259 135.56 224.989 136.49C220.659 137.13 216.299 137.59 211.949 138.1C207.079 138.68 202.199 139.15 197.289 139.2C194.549 139.22 191.809 139.27 189.059 138.96C186.249 138.64 183.689 137.93 181.579 135.94C180.659 135.07 179.489 134.92 178.279 135.28C177.919 135.39 177.559 135.5 177.209 135.61C176.329 134.49 175.529 133.46 174.729 132.43C171.829 128.7 167.969 127.01 163.299 127.02C160.249 127.02 157.329 127.68 154.489 128.7C148.579 130.83 143.379 134.22 138.439 138.03C132.789 142.4 127.619 147.32 122.719 152.51C112.549 163.29 103.469 174.94 95.1986 187.22C88.5886 197.04 82.1686 206.98 75.9386 217.05C70.6686 225.56 65.4286 234.07 60.1886 242.6C56.9386 247.89 53.7186 253.21 50.4886 258.51C50.3886 258.68 50.2986 258.86 50.1686 259C50.0386 259.16 49.9886 259.51 49.5586 259.26C49.8086 258.66 50.0286 258.05 50.2986 257.47C51.5486 254.81 52.8086 252.14 54.0886 249.5C59.3686 238.61 64.9786 227.9 70.8686 217.32C76.7586 206.75 82.8786 196.31 89.2886 186.05C94.6886 177.39 100.159 168.78 105.969 160.39C108.989 156.03 112.199 151.81 115.829 147.94C118.989 144.56 122.419 141.58 127.099 140.47C127.709 140.33 128.309 139.95 128.799 139.55C130.319 138.32 130.479 136.82 129.319 135.24C128.969 134.77 128.529 134.36 128.209 133.87C126.809 131.77 124.749 130.99 122.339 130.87C120.059 130.75 117.929 131.29 115.889 132.27C113.509 133.41 111.409 134.97 109.499 136.78C104.439 141.57 100.199 147.07 96.2886 152.8C87.5486 165.62 79.8986 179.1 72.5686 192.76C68.6986 199.96 64.9486 207.22 61.2586 214.51C54.3786 228.1 47.8386 241.85 41.9586 255.91C39.9186 260.79 37.9486 265.71 36.3486 270.76C35.6386 273 34.9886 275.26 34.6986 277.61C34.5586 278.72 34.6986 279.67 35.6486 280.42C35.9886 280.69 36.2186 281.12 36.4686 281.49C37.4586 282.92 38.6786 283.34 40.1686 282.46C41.3886 281.73 42.5486 280.83 43.5486 279.82C46.4686 276.89 48.9486 273.59 51.1986 270.13C55.6186 263.33 60.0186 256.52 64.2986 249.63C70.9886 238.85 77.5586 228 84.1786 217.18C84.3986 216.82 84.6786 216.5 84.9286 216.16C84.5586 218.48 85.4086 220.32 86.8086 221.99C87.2286 222.49 87.6286 223.01 88.0486 223.51C90.9386 226.94 94.6186 228.82 99.0986 229.08C102.479 229.28 105.729 228.61 108.899 227.47C113.049 225.98 116.869 223.85 120.589 221.51C127.879 216.93 134.449 211.43 140.719 205.58C146.129 200.54 151.249 195.2 156.019 189.55C162.359 182.04 168.209 174.17 172.749 165.41C175.839 159.45 178.319 153.29 179.049 146.54C179.079 146.3 179.159 146.06 179.249 145.71C179.559 145.86 179.809 145.94 180.009 146.09C181.299 147.03 182.749 147.57 184.249 148.07C187.469 149.14 190.799 149.32 194.129 149.32C196.999 149.32 199.869 149.03 202.739 148.82C209.199 148.33 215.589 147.26 221.949 146.07C227.669 145 233.359 143.78 239.059 142.63C239.679 142.5 240.319 142.43 241.159 142.29C240.879 142.97 240.709 143.45 240.479 143.89C239.339 146.1 238.159 148.28 237.039 150.5C232.629 159.19 228.489 168 224.539 176.91C222.709 181.03 220.979 185.2 219.259 189.36C218.919 190.18 218.459 190.81 217.719 191.31C216.789 191.92 215.919 192.61 215.029 193.29C209.009 197.9 203.039 202.58 196.959 207.12C192.079 210.76 186.999 214.1 181.609 216.95C178.479 218.61 175.299 220.11 171.819 220.91C170.019 221.33 168.199 221.46 166.369 221.18C165.359 221.03 164.759 220.49 164.499 219.45C163.949 217.25 163.989 215.05 164.349 212.84C164.379 212.68 164.589 212.55 164.769 212.35C165.249 212.53 165.749 212.69 166.209 212.91C168.109 213.81 170.069 213.99 172.139 213.68C174.439 213.34 176.589 212.61 178.619 211.51C187.369 206.77 194.369 200.12 199.849 191.85C200.969 190.15 201.829 188.31 202.439 186.37C202.729 185.43 202.929 184.49 202.819 183.48C202.509 180.48 199.989 176.93 197.249 175.65C195.009 174.6 192.679 174.61 190.329 175.03C187.329 175.57 184.549 176.74 182.049 178.47C175.999 182.66 170.469 187.45 165.779 193.14C162.389 197.26 159.579 201.72 157.819 206.79C156.819 209.66 156.349 212.63 156.409 215.65C156.499 220.06 158.699 223.47 161.819 226.37C162.799 227.28 163.959 227.92 165.239 228.22C166.899 228.6 168.599 228.78 170.299 228.6C173.109 228.3 175.809 227.53 178.429 226.48C182.759 224.75 186.829 222.52 190.749 220.03C198.779 214.94 206.269 209.14 213.439 202.91C213.869 202.53 214.339 202.2 215.009 201.68C214.949 202.2 214.939 202.45 214.889 202.69C214.499 204.54 214.079 206.39 213.699 208.25C212.969 211.86 212.649 215.49 213.119 219.17C213.349 220.95 213.859 222.62 214.959 224.07C215.509 224.8 216.089 225.51 216.689 226.2C217.719 227.4 219.009 228.05 220.629 228.1C222.369 228.16 224.009 227.82 225.579 227.08C228.089 225.91 230.389 224.39 232.429 222.55C234.809 220.41 237.149 218.19 239.289 215.82C245.979 208.42 251.759 200.35 256.689 191.67C256.999 191.12 257.369 190.54 257.859 190.14C259.499 188.81 260.939 187.29 262.159 185.59C264.559 182.24 266.889 178.85 269.249 175.47C269.539 175.06 269.849 174.67 270.239 174.16C271.279 175.78 271.859 177.28 271.229 179.07C270.429 181.35 269.709 183.66 268.939 185.95C267.559 190.04 266.149 194.13 265.539 198.41C264.979 202.33 265.009 206.15 268.169 209.18C268.219 209.22 268.249 209.29 268.289 209.34C270.279 211.84 272.849 212.75 275.949 212C276.899 211.77 277.819 211.4 278.709 211C281.919 209.56 284.549 207.29 287.079 204.91C292.209 200.09 296.559 194.63 300.449 188.78C300.719 188.37 300.999 187.96 301.269 187.55C301.369 187.94 301.259 188.23 301.169 188.53C300.459 190.86 300.049 193.24 300.309 195.69C300.519 197.6 301.009 199.43 302.139 201.01C303.019 202.23 303.949 203.43 304.989 204.5C307.049 206.61 309.599 207.42 312.509 206.91C315.899 206.32 318.809 204.78 321.189 202.29C323.999 199.35 326.519 196.17 328.689 192.73C329.629 191.24 330.539 189.69 331.099 188.04C331.629 186.49 332.209 184.97 332.979 183.53C333.439 182.67 333.959 181.83 333.469 180.83C333.769 180.6 333.959 180.41 334.179 180.28C337.139 178.47 340.119 176.7 343.049 174.86C346.769 172.53 350.539 170.31 354.519 168.46C354.819 168.32 355.149 167.93 355.569 168.37C355.449 168.66 355.339 168.97 355.189 169.25C351.829 175.4 349.409 181.98 346.589 188.37C345.519 190.79 345.989 193.13 347.269 195.3C347.859 196.3 348.699 197.17 349.469 198.05C350.139 198.8 350.999 199.24 352.009 199.43C354.149 199.84 355.909 199.1 357.279 197.54C358.489 196.17 359.569 194.68 360.669 193.22C365.859 186.32 370.999 179.39 376.249 172.53C378.069 170.15 380.139 167.95 382.119 165.68C382.339 165.42 382.669 165.26 382.999 165C383.039 165.29 383.099 165.42 383.069 165.54C382.589 168.04 382.049 170.53 381.639 173.05C381.379 174.66 381.209 176.3 381.209 177.93C381.209 180.61 381.949 183.09 383.789 185.15C384.399 185.83 384.919 186.6 385.539 187.27C387.119 188.96 389.019 189.97 391.419 189.96C393.779 189.96 395.909 189.2 397.959 188.13C400.759 186.66 403.269 184.79 405.659 182.74C405.919 182.52 406.259 182.4 406.779 182.12C406.779 183.02 406.749 183.67 406.779 184.31C406.859 185.78 407.309 187.15 408.169 188.34C408.899 189.34 409.689 190.31 410.529 191.22C411.709 192.51 413.229 193 414.949 192.89C416.759 192.77 418.419 192.16 419.879 191.12C421.149 190.21 422.409 189.24 423.499 188.13C425.969 185.61 428.339 182.99 430.739 180.4C432.059 178.97 433.349 177.52 434.919 175.77C434.979 177.08 434.979 177.93 435.069 178.77C435.349 181.46 435.969 184.03 437.489 186.35C439.549 189.47 442.509 191.46 445.789 193C447.639 193.87 449.589 193.82 451.449 192.77C452.019 192.45 452.639 192.23 453.229 191.95C453.639 191.75 454.099 191.59 454.409 191.28C454.999 190.69 455.689 190.44 456.469 190.26C458.719 189.75 460.539 188.54 461.949 186.7C462.299 186.24 462.749 185.84 463.179 185.45C464.309 184.43 464.719 182.94 464.199 181.55L464.239 181.5ZM170.819 146.78C169.599 151.71 167.409 156.23 164.959 160.64C161.299 167.23 156.949 173.35 152.249 179.24C146.579 186.36 140.409 193.03 133.749 199.24C129.099 203.57 124.249 207.65 118.939 211.15C116.379 212.84 113.689 214.35 110.989 215.79C108.499 217.11 105.829 217.99 103.039 218.49C99.6486 219.1 96.6986 218.34 94.2486 215.84C93.6986 215.28 93.1186 214.76 92.5186 214.25C90.8886 212.86 89.0986 212.78 87.2186 213.71C86.9386 213.85 86.6686 214.03 86.3886 214.19C86.3186 214.12 86.2586 214.05 86.1886 213.98C88.2886 210.67 90.3586 207.35 92.4986 204.06C97.6086 196.23 102.829 188.47 108.349 180.93C115.589 171.06 123.199 161.5 131.939 152.9C136.139 148.77 140.599 144.95 145.519 141.66C150.699 138.2 156.279 135.76 162.419 134.66C164.449 134.3 166.449 134.44 168.369 135.31C169.919 136.01 170.809 137.16 171.149 138.84C171.709 141.53 171.439 144.16 170.789 146.79L170.819 146.78ZM170.739 200.41C172.759 197.5 175.179 194.94 177.719 192.47C180.819 189.45 184.189 186.77 187.889 184.51C189.279 183.66 190.719 182.93 192.579 182.41C192.319 182.89 192.209 183.16 192.039 183.38C189.449 186.85 186.379 189.89 183.219 192.82C181.209 194.68 179.109 196.47 176.929 198.12C175.169 199.45 173.219 200.55 171.329 201.71C170.919 201.96 170.419 202.06 169.819 202.28C169.929 201.38 170.389 200.91 170.749 200.39L170.739 200.41ZM327.189 179.83C326.489 181.88 325.479 183.77 324.069 185.45C323.239 186.45 322.559 187.58 321.739 188.59C320.879 189.65 319.969 190.68 318.989 191.63C317.959 192.63 316.849 193.55 315.719 194.43C314.699 195.21 313.659 196.03 312.009 196.06C312.259 194.08 312.879 192.43 313.699 190.88C314.859 188.69 316.169 186.58 317.389 184.43C318.329 182.77 319.519 181.31 320.969 180.06C321.469 179.64 321.949 179.19 322.389 178.71C323.539 177.46 323.569 175.97 322.389 174.7C321.379 173.61 320.699 172.19 319.209 171.58C319.079 171.53 318.929 171.21 318.979 171.09C319.059 170.89 319.279 170.62 319.469 170.59C321.849 170.25 324.159 170.48 326.359 171.5C327.349 171.96 327.729 172.82 327.879 173.85C328.169 175.91 327.859 177.89 327.199 179.83H327.189ZM438.059 162.4C437.159 163.6 436.179 164.74 435.149 165.84C433.269 167.84 431.369 169.83 429.419 171.76C425.839 175.3 422.229 178.79 418.609 182.3C418.099 182.79 417.529 183.23 416.739 183.9C416.769 183.33 416.719 183.03 416.819 182.8C419.259 176.6 422.569 170.92 427.059 165.98C429.399 163.4 432.059 161.19 435.119 159.49C436.479 158.74 437.869 158.07 439.579 157.75C439.539 159.56 439.049 161.09 438.059 162.41V162.4Z" fill="#1D1D1B"/>
<path d="M71.5891 149.25C73.8391 146.86 75.8491 144.28 77.2891 141.31C78.7491 138.29 79.4591 135.13 78.4691 131.81C78.1091 130.61 77.8991 129.41 77.7291 128.17C77.4291 125.95 76.8491 123.82 75.5091 121.95C73.7291 119.47 71.6491 117.33 68.8991 115.95C67.6191 115.3 66.3391 114.63 65.0191 114.07C60.7491 112.24 56.3291 110.8 51.8991 109.41C45.0991 107.28 38.2791 105.23 31.4791 103.07C26.9291 101.63 22.4191 100.03 18.2091 97.7404C16.4391 96.7804 14.7991 95.5704 13.1091 94.4504C12.4391 94.0104 12.2391 93.3504 12.3691 92.5704C12.5091 91.7304 12.6891 90.8904 12.6791 90.0504C12.6791 88.9304 13.0791 88.0504 13.7391 87.1804C16.9791 82.8904 20.5991 78.9404 24.4591 75.2104C29.8691 69.9704 35.6491 65.1704 41.7391 60.7404C50.5491 54.3404 59.7991 48.6804 69.7991 44.3404C79.1291 40.2904 88.7091 37.0904 99.0091 36.5804C101.389 36.4604 103.709 36.6904 106.039 36.9604C107.669 37.1504 109.239 37.5504 110.749 38.2204C114.269 39.7804 115.519 41.7304 115.359 45.5804C115.349 45.8404 115.319 46.1004 115.289 46.3604C115.059 48.2504 114.649 50.0904 114.019 51.8904C112.139 57.2404 109.369 62.1004 106.099 66.7204C104.959 68.3404 103.729 69.8404 101.939 70.7904C101.539 71.0004 101.219 71.3604 100.819 71.5804C100.259 71.9004 99.6991 72.2504 99.0891 72.4304C97.8191 72.8104 96.6491 73.3804 95.5691 74.1304C92.5091 76.2604 90.0991 78.9904 88.3691 82.2904C87.8291 83.3204 87.5191 84.4804 87.2391 85.6104C87.0091 86.5304 87.1391 87.5304 87.9491 88.1204C89.3091 89.1204 90.7091 90.1804 92.5791 89.8404C94.9591 89.4004 97.3291 89.0104 99.4491 87.6804C102.339 85.8704 104.549 83.4104 106.479 80.6604C107.079 79.8004 107.659 78.9804 108.639 78.4504C109.179 78.1604 109.609 77.5804 109.949 77.0404C112.309 73.3504 114.679 69.6604 116.939 65.9104C118.019 64.1204 118.929 62.2304 119.789 60.3204C121.849 55.7704 122.779 51.0104 122.209 46.0004C121.889 43.1404 120.999 40.5204 119.269 38.2104C118.839 37.6404 118.349 37.1004 117.929 36.5204C115.919 33.7804 113.199 32.0604 110.019 30.9904C107.399 30.1004 104.679 29.7204 101.929 29.6004C97.1291 29.3904 92.3991 29.9904 87.7191 30.9704C79.8891 32.6204 72.3691 35.2404 65.0091 38.3604C57.0291 41.7404 49.4991 45.9004 42.3891 50.8604C34.8691 56.1104 27.6791 61.7604 20.9391 67.9904C15.5991 72.9304 10.5791 78.1704 6.4191 84.1704C4.6591 86.7004 3.16911 89.3804 1.98911 92.2304C0.869106 94.9504 0.479095 97.7604 0.759095 100.68C0.879095 101.93 1.2291 103.13 1.8691 104.21C3.5191 107 5.5391 109.45 8.3091 111.22C10.2491 112.46 12.3591 113.33 14.5191 114.12C15.5591 114.5 16.6291 114.86 17.5991 115.37C22.7091 118.06 28.0691 120.15 33.5191 122C40.6391 124.42 47.8291 126.63 54.9391 129.06C58.5191 130.28 62.0191 131.76 65.5391 133.17C66.4391 133.53 67.3391 133.92 68.0791 134.54C66.9991 138.25 57.1091 145.66 50.8391 148.94C50.2691 148.37 49.5891 147.95 49.2991 147.35C48.3991 145.53 46.9991 145.33 45.1991 145.61C38.5191 146.63 32.0291 148.37 25.6891 150.69C21.1391 152.35 16.7191 154.32 12.5791 156.86C10.4491 158.17 8.4891 159.68 6.7291 161.45C5.3791 162.82 4.2891 164.36 3.7591 166.23C3.2291 168.1 3.3691 169.85 4.7991 171.34C5.1091 171.67 5.4091 172.02 5.6691 172.4C6.5891 173.76 7.89909 174.56 9.42909 175.07C11.3291 175.7 13.2791 175.8 15.2391 175.79C19.9191 175.77 24.4691 174.84 28.9391 173.55C39.3791 170.56 49.1991 166.16 58.2691 160.17C63.0791 156.99 67.6291 153.47 71.5891 149.25ZM15.9791 163.15C20.8091 159.07 40.7591 152.05 47.3591 151.07C37.2691 156.38 27.2591 160.97 15.9791 163.15Z" fill="#1D1D1B"/>
<path d="M104.1 102.371C103.33 104.611 102.9 106.911 102.74 109.281C102.6 111.381 103.04 113.311 104.34 115.001C104.9 115.731 105.47 116.441 106.07 117.131C107.57 118.861 109.48 119.471 111.72 119.061C113.42 118.751 114.98 118.071 116.35 117.041C117.39 116.261 118.42 115.421 119.31 114.481C122.6 111.021 125.82 107.501 129.08 104.011C129.55 103.501 129.91 102.851 130.58 102.531C130.7 102.721 130.8 102.821 130.82 102.931C131.19 105.651 131.57 108.361 131.9 111.081C132.13 112.911 132.59 114.671 133.4 116.331C134.17 117.911 135.31 119.121 136.84 119.981C137.76 120.501 138.67 120.571 139.64 120.091C142.21 118.811 144.8 117.561 147.15 115.861C148.49 114.891 149.52 113.631 150.67 112.471C153.23 109.861 155.83 107.271 158.42 104.681C158.64 104.461 158.89 104.291 159.21 104.031C159.31 104.351 159.42 104.521 159.42 104.691C159.37 107.711 161.12 109.831 163.03 111.841C163.54 112.381 164.32 112.761 165.05 112.961C167.38 113.601 169.32 112.771 170.83 111.011C172.06 109.571 173.17 108.031 174.31 106.511C178.82 100.491 183.27 94.4208 187.84 88.4508C190.06 85.5408 192.49 82.8008 194.86 80.0008C195.22 79.5808 195.53 79.0108 196.34 79.0108C196.29 79.5508 196.28 80.0608 196.19 80.5608C196.05 81.3308 195.84 82.0908 195.69 82.8608C195.1 85.8808 194.52 88.8908 194.65 91.9908C194.72 93.6608 195.05 95.2408 195.84 96.7008C196.94 98.7308 198.39 100.501 200.17 101.971C201.47 103.031 202.99 103.561 204.7 103.571C206.1 103.571 207.43 103.331 208.73 102.871C211.79 101.791 214.46 100.041 216.97 98.0208C217.98 97.2108 218.98 96.3808 220.26 95.3308C219.98 96.5908 219.78 97.5208 219.57 98.4508C218.74 102.161 218.18 105.901 218.27 109.711C218.34 112.861 218.93 115.821 221.28 118.161C221.46 118.341 221.58 118.591 221.74 118.791C223.21 120.651 225.11 121.361 227.46 121.001C230.33 120.571 232.76 119.181 235.07 117.541C238.94 114.801 242.22 111.421 245.37 107.911C248.34 104.601 251.06 101.081 253.68 97.4808C254 97.0408 254.24 96.4808 254.95 96.2108C255.54 98.1408 256.9 99.4208 258.04 100.831C259.13 102.181 260.6 102.791 262.35 102.781C264.54 102.771 266.46 101.981 268.16 100.701C269.56 99.6408 270.92 98.4808 272.14 97.2108C274.98 94.2308 277.73 91.1508 280.51 88.1208C280.75 87.8508 281.02 87.6108 281.47 87.1708C281.47 88.5008 281.45 89.5508 281.47 90.5908C281.53 92.9708 282.12 95.2208 283.01 97.4308C284.79 101.821 290.73 105.491 296.33 103.991C298.45 103.421 300.4 102.551 302.16 101.281C306.43 98.1908 309.71 94.3408 311.81 89.4208C313.28 85.9808 313.4 82.4608 313.3 78.8608C313.28 78.1308 312.87 77.8308 312.1 77.9208C310.91 78.0608 309.9 78.4508 309.02 79.4008C306.34 82.2708 303.61 85.0808 300.79 87.8208C299.15 89.4108 297.34 90.8308 295.56 92.2608C294.41 93.1808 293.1 93.3008 291.66 92.9008C290.62 92.6108 290.09 92.0508 289.96 91.0308C289.77 89.4708 289.58 87.9208 289.4 86.3608C289.04 83.3908 290.28 81.0208 292.22 78.9308C293.43 77.6208 294.88 76.5808 296.48 75.8208C298.17 75.0108 299.25 73.6808 300.09 72.0908C301.01 70.3608 300.95 68.6908 299.7 67.1508C299.18 66.5108 298.93 65.8408 298.83 65.0308C298.63 63.3708 297.97 61.8908 296.86 60.6208C296.34 60.0308 295.87 59.4008 295.34 58.8208C293.21 56.5108 290.53 55.4608 287.43 55.6408C284.2 55.8208 281.11 56.6108 278.19 58.0408C274.2 59.9908 270.79 62.7008 267.77 65.9308C264.04 69.9308 261.06 74.4408 258.66 79.3508C258.26 80.1708 257.85 81.0008 257.35 81.7608C255.31 84.8808 253.27 88.0008 251.17 91.0808C247.48 96.4908 243.59 101.741 239.07 106.501C236.81 108.881 234.44 111.131 231.63 112.861C230.12 113.791 228.55 114.591 226.79 114.941C226.41 115.021 226.01 115.081 225.63 115.061C224.85 115.001 224.44 114.611 224.39 113.811C224.35 113.161 224.39 112.501 224.46 111.861C224.77 108.921 225.52 106.081 226.47 103.291C228.92 96.0908 232.07 89.2008 235.4 82.3808C241.53 69.7908 248.3 57.5408 255.48 45.5208C255.5 45.4908 255.52 45.4608 255.54 45.4208C260.24 44.5208 264.96 43.7708 269.71 43.1808C273.41 42.7308 277.13 42.4108 280.87 42.5008C284.11 42.5808 287.34 42.8008 290.58 43.0008C292.33 43.1008 294.08 43.3608 295.81 42.7808C296.25 42.6308 296.79 42.7008 297.28 42.7008C301.31 42.7108 305.28 43.2208 309.24 43.8708C311.6 44.2608 313.98 44.4708 316.35 44.7908C317.39 44.9308 318.44 45.0708 319.44 45.3408C320.73 45.6908 322.03 45.9208 323.38 45.9908C324.84 46.0708 325.78 45.5108 326.47 44.3708C328.07 41.6908 327.5 38.2208 325.1 36.1108C324.74 35.8008 324.41 35.4608 324.08 35.1208C323.35 34.3508 322.42 33.8608 321.34 33.7508C318.4 33.4608 315.45 33.1608 312.5 33.0508C309.9 32.9508 307.29 33.1208 304.69 33.1508C303.99 33.1508 303.28 33.1508 302.58 33.0708C299.26 32.7208 295.96 32.9008 292.67 33.3508C291.4 33.5208 285.83 34.5108 285.2 34.5708C284.08 34.6708 282.96 34.7708 281.83 34.8208C278.95 34.9608 276.05 34.9908 273.18 35.2508C270.88 35.4608 268.59 35.8908 266.31 36.3008C264.4 36.6408 262.51 37.0208 260.61 37.3908L264.21 32.0508C264.21 32.0508 269.78 23.0408 269.53 22.8008C271.73 19.6608 273.92 16.5708 276.08 13.4608C277.13 11.9608 278.17 10.4508 279.14 8.9008C279.58 8.1908 279.85 7.37081 280.13 6.57081C280.34 5.99081 280.25 5.3608 279.87 4.8908C278.97 3.7708 278.07 2.65081 277.06 1.63081C275.99 0.550809 274.62 0.370798 273.24 0.900798C272.34 1.2508 271.45 1.72081 270.68 2.32081C269.5 3.24081 268.33 4.22081 267.33 5.33081C265.53 7.32081 263.81 9.3708 262.15 11.4808C261.98 11.6908 261.77 11.9708 261.54 12.2908C259.32 15.1808 257.25 18.1908 255.27 21.2508C254.35 22.6008 253.39 24.0108 252.42 25.4308C250.1 28.8408 246.19 35.3608 246.49 35.3408C246.11 36.1208 245.83 36.7008 245.53 37.2708C245.08 38.1408 244.62 39.0108 244.16 39.8808C243.62 39.9708 243.08 40.0608 242.53 40.1508C243.4 38.8208 244.49 37.1908 245.7 35.3708C245.49 35.3808 245.3 35.4008 245.11 35.4308C244.09 37.1308 243.15 38.7208 242.29 40.1908C240.88 40.4408 239.46 40.6908 238.04 40.9108C233.52 41.6308 229.01 42.3908 224.47 42.9508C218.89 43.6408 213.29 44.1708 207.7 44.7208C202.62 45.2108 197.53 45.3808 192.43 45.0108C189.69 44.8108 187.15 44.1408 185.02 42.3008C184.77 42.0908 184.51 41.8908 184.24 41.7108C182.29 40.4508 179.97 41.1508 179.01 43.2608C178.4 44.6008 178.4 45.9608 179.12 47.2208C179.7 48.2308 180.48 49.1308 181.15 50.0908C182.53 52.0508 184.45 53.2208 186.69 53.9208C188.88 54.6108 191.14 54.9508 193.42 55.1508C197.61 55.5108 201.79 55.2808 205.95 54.8208C213.1 54.0308 220.21 52.9808 227.27 51.5808C231.36 50.7708 235.45 49.9208 239.54 49.0808C236.78 54.8208 234.04 60.5708 231.37 66.3508C229.2 71.0408 227.12 75.7608 225.19 80.5508C224.41 82.4908 223.55 84.1808 221.74 85.3308C221.09 85.7408 220.57 86.3708 220 86.9108C218.76 88.0708 217.54 89.2508 216.27 90.4008C214.13 92.3408 211.84 94.0808 209.11 95.1408C207.89 95.6208 206.63 95.9808 205.29 95.9308C204.09 95.8908 203.6 95.5308 203.42 94.3608C203.24 93.2008 203.07 92.0208 203.12 90.8508C203.2 88.8308 203.48 86.8208 203.63 84.8008C203.79 82.5908 203.99 80.3708 204 78.1508C204.01 76.0308 203.71 73.9608 201.9 72.4608C201.66 72.2608 201.56 71.8908 201.34 71.6608C200.93 71.2408 200.5 70.8408 200.05 70.4708C199.56 70.0708 199.03 70.0008 198.4 70.1908C197.01 70.6208 195.68 71.1808 194.55 72.0908C192.93 73.4108 191.28 74.7108 189.78 76.1608C185.77 80.0208 182.15 84.2408 178.57 88.5008C178.08 89.0808 177.56 89.6508 177.06 90.2208L176.83 90.0808C176.97 89.7408 177.1 89.4008 177.25 89.0708C178.61 86.1008 179.99 83.1308 181.32 80.1508C181.83 79.0208 182.26 77.8508 182.68 76.6908C182.99 75.8308 182.82 75.0008 182.26 74.2808C181.71 73.5608 181.14 72.8408 180.54 72.1608C179.24 70.6808 177.64 70.3908 175.97 71.4108C175.14 71.9208 174.39 72.5708 173.68 73.2408C172.06 74.7808 170.8 76.6208 169.59 78.4908C167.44 81.7808 165.54 85.2008 163.82 88.7408C163.54 89.3208 163.23 89.9308 162.78 90.3708C160.6 92.5408 158.31 94.5808 156.19 96.8008C153.76 99.3508 151.2 101.791 149.02 104.591C147.78 106.181 146.33 107.621 144.86 109.011C144.02 109.801 142.99 110.461 141.96 110.991C140.43 111.781 138.95 111.351 138.26 110.011C138.04 109.581 137.97 109.011 137.99 108.521C138.03 107.611 138.16 106.701 138.31 105.791C138.67 103.661 139.04 101.541 139.44 99.4208C139.79 97.5408 141.39 96.5508 142.51 95.2208C142.62 95.0908 142.86 95.0308 143.05 95.0308C144.46 94.9908 145.28 94.0408 146.07 93.0708C146.87 92.0808 147.32 90.9708 147.38 89.6608C147.45 88.0208 147.38 86.4108 147.11 84.7908C146.95 83.8308 146.82 82.8408 146.83 81.8708C146.86 79.9908 146.17 78.4408 144.97 77.0508C144.5 76.5108 144.07 75.9308 143.61 75.3708C142.86 74.4408 141.91 73.7708 140.87 73.1808C138.64 71.9208 136.27 71.8508 133.82 72.1808C128.25 72.9208 123.48 75.4008 119.31 79.0308C112.02 85.3708 107.15 93.3208 104.05 102.401L104.1 102.371ZM264.45 93.1108C267.17 86.1608 270.86 79.8108 276.21 74.5308C278.84 71.9408 281.76 69.7608 285.2 68.3508C285.68 68.1508 286.18 67.9908 286.68 67.8408C286.79 67.8008 286.93 67.8608 287.29 67.8908C287.23 69.6108 286.83 71.0908 285.85 72.3708C285.01 73.4608 284.14 74.5308 283.19 75.5108C278.91 79.9208 274.6 84.3008 270.27 88.6608C268.94 90.0008 267.5 91.2508 266.1 92.5208C265.62 92.9508 265.09 93.3308 264.48 93.8108C264.46 93.4708 264.4 93.2708 264.46 93.1108H264.45ZM125.65 89.6308C128.04 87.4508 130.74 85.7508 133.72 84.5108C134.2 84.3108 134.69 84.1708 135.32 83.9508C135.35 84.4308 135.45 84.8108 135.39 85.1508C135.1 86.8708 134.35 88.3808 133.21 89.6908C132.14 90.9208 131.06 92.1608 129.92 93.3208C125.7 97.6108 121.47 101.871 117.21 106.121C115.83 107.501 114.38 108.811 112.57 110.101C112.57 109.641 112.53 109.501 112.57 109.401C115.54 101.901 119.6 95.1008 125.63 89.6208L125.65 89.6308Z" fill="#1D1D1B"/>
</svg>
